#!OML:ASF F:\VICON\USERDATA\INSTALL\rory3\rory3.ASF
:FULLY-SPECIFIED
:DEGREES
2623
root -0.436944 16.6049 -1.5499 10.5372 2.54584 -2.80917
lowerback 11.0064 6.12791 -2.93241
upperback 0.249837 7.57041 -3.13136
thorax -5.82769 3.75142 -2.85108
lowerneck -22.6769 -8.1494 -12.6822
upperneck 16.1104 -11.2783 18.5311
head 10.8646 -3.99313 6.97302
rclavicle 1.88845e-014 -7.95139e-016
rhumerus 21.7714 -0.657816 -64.3905
rradius 95.758
rwrist 11.7421
rhand -11.8485 13.5002
rfingers 7.12502
rthumb 14.203 -15.9942
lclavicle 1.88845e-014 -7.95139e-016
lhumerus 21.589 -21.2464 77.3705
lradius 127.549
lwrist -12.1722
lhand -3.74902 4.81083
lfingers 7.12502
lthumb 21.995 33.5802
rfemur 2.85331 -14.0466 18.1802
rtibia 44.2902
rfoot -4.72139 -12.7836
rtoes -17.926
lfemur -50.5024 -17.8099 -3.41314
ltibia 29.1207
lfoot 12.2499 -25.1236
ltoes 0.575645
2624
root -0.439801 16.6061 -1.5185 10.3289 2.2312 -2.78259
lowerback 11.2172 6.23281 -3.31085
upperback 0.332284 7.65349 -3.06521
thorax -5.91555 3.79997 -2.61172
lowerneck -22.5776 -8.08173 -12.8752
upperneck 16.1124 -11.1186 18.496
head 10.8255 -3.94249 7.02461
rclavicle -7.95139e-015 1.59028e-015
rhumerus 19.3416 0.44019 -66.2525
rradius 98.9064
rwrist 9.93378
rhand -11.1376 14.4983
rfingers 7.12502
rthumb 14.888 -14.9467
lclavicle -7.95139e-015 1.59028e-015
lhumerus 21.814 -20.9311 77.7015
lradius 127.167
lwrist -12.2762
lhand -3.87347 4.82321
lfingers 7.12502
lthumb 21.8755 33.6066
rfemur 2.65234 -14.2248 17.8219
rtibia 44.9494
rfoot -3.57833 -13.4079
rtoes -16.5368
lfemur -50.2809 -17.7157 -3.5482
ltibia 29.575
lfoot 11.8874 -25.0638
ltoes 1.27572
2625
root -0.441568 16.6056 -1.49317 10.1792 2.02032 -2.74283
lowerback 11.5644 6.32232 -3.57241
upperback 0.293205 7.71242 -3.08944
thorax -6.18142 3.83152 -2.55315
lowerneck -22.4214 -8.03215 -12.9725
upperneck 16.189 -11.0394 18.4775
head 10.8133 -3.9212 7.05406
rclavicle 1.26029e-013 -1.51076e-014
rhumerus 16.5006 1.41912 -68.2245
rradius 101.965
rwrist 8.34335
rhand -10.4307 15.6576
rfingers 7.12502
rthumb 15.5688 -13.7358
lclavicle 1.26029e-013 -1.51076e-014
lhumerus 21.9376 -20.8743 77.956
lradius 126.874
lwrist -12.1507
lhand -4.09735 4.81065
lfingers 7.12502
lthumb 21.6605 33.619
rfemur 2.39072 -14.5074 17.4892
rtibia 45.6355
rfoot -2.60306 -13.888
rtoes -14.3371
lfemur -50.1357 -17.5541 -3.74489
ltibia 29.9789
lfoot 11.5578 -25.2736
ltoes 0.942515
2626
root -0.439585 16.6031 -1.46884 10.1836 1.8366 -2.7894
lowerback 11.6328 6.37462 -3.64373
upperback 0.262232 7.76264 -3.14833
thorax -6.25342 3.85638 -2.59615
lowerneck -22.3213 -8.00261 -12.9443
upperneck 16.2709 -11.0011 18.3591
head 10.805 -3.91763 7.01403
rclavicle 6.75868e-015 -1.27222e-014
rhumerus 13.9778 2.38312 -70.172
rradius 104.761
rwrist 6.59418
rhand -9.76848 16.5101
rfingers 7.12502
rthumb 16.2066 -12.8325
lclavicle 6.75868e-015 -1.27222e-014
lhumerus 22.1887 -20.8444 78.0165
lradius 126.68
lwrist -11.8575
lhand -4.19651 4.86266
lfingers 7.12502
lthumb 21.5652 33.682
rfemur 1.98396 -14.8697 17.2538
rtibia 46.3452
rfoot -1.79522 -14.2836
rtoes -12.3906
lfemur -50.1924 -17.4219 -3.74582
ltibia 30.3859
lfoot 11.2659 -25.3498
ltoes 0.80311
2627
root -0.432646 16.6021 -1.43897 10.0546 1.49212 -2.8389
lowerback 11.6659 6.38026 -3.72079
upperback 0.312495 7.75741 -3.16705
thorax -6.22618 3.85521 -2.57317
lowerneck -22.2804 -7.91053 -13.0025
upperneck 16.4126 -10.8468 18.2376
head 10.8127 -3.86323 7.01246
rclavicle -6.36111e-015 5.56597e-015
rhumerus 11.9059 3.55943 -71.9996
rradius 107.318
rwrist 4.54266
rhand -8.96161 16.8201
rfingers 7.12502
rthumb 16.9834 -12.4574
lclavicle -6.36111e-015 5.56597e-015
lhumerus 22.3917 -20.7205 78.0879
lradius 126.499
lwrist -11.7223
lhand -4.06341 5.05858
lfingers 7.12502
lthumb 21.6931 33.8632
rfemur 1.68404 -15.0671 16.9618
rtibia 47.0813
rfoot -1.00868 -14.7231
rtoes -11.189
lfemur -50.0902 -17.3772 -3.71386
ltibia 30.8362
lfoot 11.1858 -24.9565
ltoes 2.23938
2628
root -0.426429 16.5977 -1.41129 9.87533 1.153 -2.76841
lowerback 11.706 6.32954 -4.00246
upperback 0.434299 7.65676 -3.09762
thorax -6.16674 3.81334 -2.32688
lowerneck -22.3163 -7.80156 -13.2552
upperneck 16.5463 -10.5975 18.1326
head 10.8267 -3.77378 7.06869
rclavicle -5.80451e-014 2.06736e-014
rhumerus 9.66929 4.80001 -73.7844
rradius 109.825
rwrist 2.69044
rhand -8.15969 17.3326
rfingers 7.12502
rthumb 17.7552 -11.8768
lclavicle -5.80451e-014 2.06736e-014
lhumerus 22.491 -20.529 78.3922
lradius 126.268
lwrist -11.7539
lhand -3.73455 5.30938
lfingers 7.12502
lthumb 22.0088 34.0772
rfemur 1.42863 -15.2428 16.5665
rtibia 47.8306
rfoot -0.292273 -15.183
rtoes -10.5985
lfemur -49.8788 -17.2361 -3.9576
ltibia 31.3303
lfoot 10.5778 -24.959
ltoes 1.70523
